<mxfile host="app.diagrams.net" modified="2021-04-03T15:46:14.477Z" agent="5.0 (Macintosh; Intel Mac OS X 10_15_6) AppleWebKit/605.1.15 (KHTML, like Gecko) Version/14.0.3 Safari/605.1.15" etag="w6PM7MX0rEACFxIHyRIH" version="14.5.6" type="github">
  <diagram name="GetSubscribedTicker" id="c7488fd3-1785-93aa-aadb-54a6760d102a">
    <mxGraphModel dx="1195" dy="559" grid="1" gridSize="10" guides="1" tooltips="1" connect="1" arrows="1" fold="1" page="1" pageScale="1" pageWidth="1100" pageHeight="850" background="#ffffff" math="0" shadow="0">
      <root>
        <mxCell id="0" />
        <mxCell id="1" parent="0" />
        <mxCell id="mjtQQ0A5IN0c86QrF7Lo-1" value="Get Subscribed Ticker" style="swimlane;html=1;childLayout=stackLayout;horizontal=1;startSize=20;horizontalStack=0;rounded=0;shadow=0;labelBackgroundColor=none;strokeWidth=1;fontFamily=Verdana;fontSize=8;align=center;" vertex="1" parent="1">
          <mxGeometry x="40" y="40" width="730" height="580" as="geometry" />
        </mxCell>
        <mxCell id="mjtQQ0A5IN0c86QrF7Lo-2" value="market-data-manager" style="swimlane;html=1;startSize=20;horizontal=0;" vertex="1" parent="mjtQQ0A5IN0c86QrF7Lo-1">
          <mxGeometry y="20" width="730" height="170" as="geometry" />
        </mxCell>
        <mxCell id="mjtQQ0A5IN0c86QrF7Lo-3" value="" style="ellipse;whiteSpace=wrap;html=1;rounded=0;shadow=0;labelBackgroundColor=none;strokeWidth=1;fontFamily=Verdana;fontSize=8;align=center;" vertex="1" parent="mjtQQ0A5IN0c86QrF7Lo-2">
          <mxGeometry x="40" y="35" width="30" height="30" as="geometry" />
        </mxCell>
        <mxCell id="mjtQQ0A5IN0c86QrF7Lo-4" value="Subscribe to the ticker&#39;s topic" style="rounded=1;whiteSpace=wrap;html=1;shadow=0;labelBackgroundColor=none;strokeWidth=1;fontFamily=Verdana;fontSize=8;align=center;" vertex="1" parent="mjtQQ0A5IN0c86QrF7Lo-2">
          <mxGeometry x="100" y="30" width="80" height="40" as="geometry" />
        </mxCell>
        <mxCell id="mjtQQ0A5IN0c86QrF7Lo-5" value="" style="endArrow=classic;html=1;exitX=1;exitY=0.5;exitDx=0;exitDy=0;entryX=0;entryY=0.5;entryDx=0;entryDy=0;" edge="1" parent="mjtQQ0A5IN0c86QrF7Lo-2" source="mjtQQ0A5IN0c86QrF7Lo-3" target="mjtQQ0A5IN0c86QrF7Lo-4">
          <mxGeometry width="50" height="50" relative="1" as="geometry">
            <mxPoint x="50" y="119" as="sourcePoint" />
            <mxPoint x="100" y="69" as="targetPoint" />
          </mxGeometry>
        </mxCell>
        <mxCell id="mjtQQ0A5IN0c86QrF7Lo-7" value="Save price" style="rounded=1;whiteSpace=wrap;html=1;shadow=0;labelBackgroundColor=none;strokeWidth=1;fontFamily=Verdana;fontSize=8;align=center;" vertex="1" parent="mjtQQ0A5IN0c86QrF7Lo-2">
          <mxGeometry x="430" y="100" width="80" height="40" as="geometry" />
        </mxCell>
        <mxCell id="mjtQQ0A5IN0c86QrF7Lo-9" value="Return price" style="rounded=1;whiteSpace=wrap;html=1;shadow=0;labelBackgroundColor=none;strokeWidth=1;fontFamily=Verdana;fontSize=8;align=center;" vertex="1" parent="mjtQQ0A5IN0c86QrF7Lo-2">
          <mxGeometry x="320" y="30" width="80" height="40" as="geometry" />
        </mxCell>
        <mxCell id="mjtQQ0A5IN0c86QrF7Lo-10" value="&lt;font style=&quot;font-size: 8px&quot;&gt;End&lt;/font&gt;" style="strokeWidth=2;html=1;shape=mxgraph.flowchart.terminator;whiteSpace=wrap;" vertex="1" parent="mjtQQ0A5IN0c86QrF7Lo-2">
          <mxGeometry x="430" y="30" width="80" height="40" as="geometry" />
        </mxCell>
        <mxCell id="mjtQQ0A5IN0c86QrF7Lo-11" value="&lt;font style=&quot;font-size: 8px&quot;&gt;intraday_ticker&lt;/font&gt;" style="shape=datastore;whiteSpace=wrap;html=1;" vertex="1" parent="mjtQQ0A5IN0c86QrF7Lo-2">
          <mxGeometry x="540" y="90" width="60" height="60" as="geometry" />
        </mxCell>
        <mxCell id="mjtQQ0A5IN0c86QrF7Lo-13" value="" style="endArrow=classic;html=1;entryX=0;entryY=0.5;entryDx=0;entryDy=0;entryPerimeter=0;exitX=1;exitY=0.5;exitDx=0;exitDy=0;" edge="1" parent="mjtQQ0A5IN0c86QrF7Lo-2" source="mjtQQ0A5IN0c86QrF7Lo-9" target="mjtQQ0A5IN0c86QrF7Lo-10">
          <mxGeometry width="50" height="50" relative="1" as="geometry">
            <mxPoint x="390" y="180" as="sourcePoint" />
            <mxPoint x="440" y="130" as="targetPoint" />
          </mxGeometry>
        </mxCell>
        <mxCell id="mjtQQ0A5IN0c86QrF7Lo-144" value="Consume ticker from topic" style="rounded=1;whiteSpace=wrap;html=1;shadow=0;labelBackgroundColor=none;strokeWidth=1;fontFamily=Verdana;fontSize=8;align=center;" vertex="1" parent="mjtQQ0A5IN0c86QrF7Lo-2">
          <mxGeometry x="210" y="30" width="80" height="40" as="geometry" />
        </mxCell>
        <mxCell id="mjtQQ0A5IN0c86QrF7Lo-146" value="" style="endArrow=classic;html=1;exitX=1;exitY=0.5;exitDx=0;exitDy=0;entryX=0;entryY=0.5;entryDx=0;entryDy=0;" edge="1" parent="mjtQQ0A5IN0c86QrF7Lo-2" source="mjtQQ0A5IN0c86QrF7Lo-144" target="mjtQQ0A5IN0c86QrF7Lo-9">
          <mxGeometry width="50" height="50" relative="1" as="geometry">
            <mxPoint x="80" y="60" as="sourcePoint" />
            <mxPoint x="110" y="60" as="targetPoint" />
          </mxGeometry>
        </mxCell>
        <mxCell id="mjtQQ0A5IN0c86QrF7Lo-175" value="Consume &amp;nbsp;new ticker from topic" style="rounded=1;whiteSpace=wrap;html=1;shadow=0;labelBackgroundColor=none;strokeWidth=1;fontFamily=Verdana;fontSize=8;align=center;" vertex="1" parent="mjtQQ0A5IN0c86QrF7Lo-2">
          <mxGeometry x="320" y="100" width="80" height="40" as="geometry" />
        </mxCell>
        <mxCell id="mjtQQ0A5IN0c86QrF7Lo-176" value="" style="endArrow=classic;html=1;entryX=0;entryY=0.5;entryDx=0;entryDy=0;exitX=1;exitY=0.5;exitDx=0;exitDy=0;" edge="1" parent="mjtQQ0A5IN0c86QrF7Lo-2" source="mjtQQ0A5IN0c86QrF7Lo-175" target="mjtQQ0A5IN0c86QrF7Lo-7">
          <mxGeometry width="50" height="50" relative="1" as="geometry">
            <mxPoint x="410" y="59.999999999999886" as="sourcePoint" />
            <mxPoint x="440" y="59.999999999999886" as="targetPoint" />
          </mxGeometry>
        </mxCell>
        <mxCell id="mjtQQ0A5IN0c86QrF7Lo-178" value="" style="endArrow=classic;html=1;entryX=0;entryY=0.5;entryDx=0;entryDy=0;exitX=1;exitY=0.5;exitDx=0;exitDy=0;" edge="1" parent="mjtQQ0A5IN0c86QrF7Lo-2" source="mjtQQ0A5IN0c86QrF7Lo-7" target="mjtQQ0A5IN0c86QrF7Lo-11">
          <mxGeometry width="50" height="50" relative="1" as="geometry">
            <mxPoint x="410" y="130" as="sourcePoint" />
            <mxPoint x="440" y="130" as="targetPoint" />
          </mxGeometry>
        </mxCell>
        <mxCell id="mjtQQ0A5IN0c86QrF7Lo-15" value="event-streamer" style="swimlane;html=1;startSize=20;horizontal=0;" vertex="1" parent="mjtQQ0A5IN0c86QrF7Lo-1">
          <mxGeometry y="190" width="730" height="120" as="geometry" />
        </mxCell>
        <mxCell id="mjtQQ0A5IN0c86QrF7Lo-82" value="" style="shape=table;html=1;whiteSpace=wrap;startSize=0;container=1;collapsible=0;childLayout=tableLayout;" vertex="1" parent="mjtQQ0A5IN0c86QrF7Lo-15">
          <mxGeometry x="100" y="30" width="420" height="40" as="geometry" />
        </mxCell>
        <mxCell id="mjtQQ0A5IN0c86QrF7Lo-83" value="" style="shape=partialRectangle;html=1;whiteSpace=wrap;collapsible=0;dropTarget=0;pointerEvents=0;fillColor=none;top=0;left=0;bottom=0;right=0;points=[[0,0.5],[1,0.5]];portConstraint=eastwest;" vertex="1" parent="mjtQQ0A5IN0c86QrF7Lo-82">
          <mxGeometry width="420" height="40" as="geometry" />
        </mxCell>
        <mxCell id="mjtQQ0A5IN0c86QrF7Lo-84" value="" style="shape=partialRectangle;html=1;whiteSpace=wrap;connectable=0;overflow=hidden;fillColor=none;top=0;left=0;bottom=0;right=0;" vertex="1" parent="mjtQQ0A5IN0c86QrF7Lo-83">
          <mxGeometry width="105" height="40" as="geometry" />
        </mxCell>
        <mxCell id="mjtQQ0A5IN0c86QrF7Lo-85" value="" style="shape=partialRectangle;html=1;whiteSpace=wrap;connectable=0;overflow=hidden;fillColor=none;top=0;left=0;bottom=0;right=0;" vertex="1" parent="mjtQQ0A5IN0c86QrF7Lo-83">
          <mxGeometry x="105" width="105" height="40" as="geometry" />
        </mxCell>
        <mxCell id="mjtQQ0A5IN0c86QrF7Lo-86" value="" style="shape=partialRectangle;html=1;whiteSpace=wrap;connectable=0;overflow=hidden;fillColor=none;top=0;left=0;bottom=0;right=0;" vertex="1" parent="mjtQQ0A5IN0c86QrF7Lo-83">
          <mxGeometry x="210" width="105" height="40" as="geometry" />
        </mxCell>
        <mxCell id="mjtQQ0A5IN0c86QrF7Lo-87" value="" style="shape=partialRectangle;html=1;whiteSpace=wrap;connectable=0;overflow=hidden;fillColor=none;top=0;left=0;bottom=0;right=0;" vertex="1" parent="mjtQQ0A5IN0c86QrF7Lo-83">
          <mxGeometry x="315" width="105" height="40" as="geometry" />
        </mxCell>
        <mxCell id="mjtQQ0A5IN0c86QrF7Lo-30" value="stocker" style="swimlane;html=1;startSize=20;horizontal=0;" vertex="1" parent="mjtQQ0A5IN0c86QrF7Lo-1">
          <mxGeometry y="310" width="730" height="170" as="geometry" />
        </mxCell>
        <mxCell id="mjtQQ0A5IN0c86QrF7Lo-174" value="" style="endArrow=classic;html=1;entryX=0;entryY=0.5;entryDx=0;entryDy=0;entryPerimeter=0;exitX=1;exitY=0.5;exitDx=0;exitDy=0;" edge="1" parent="mjtQQ0A5IN0c86QrF7Lo-30" source="mjtQQ0A5IN0c86QrF7Lo-150" target="mjtQQ0A5IN0c86QrF7Lo-152">
          <mxGeometry width="50" height="50" relative="1" as="geometry">
            <mxPoint x="190" y="60" as="sourcePoint" />
            <mxPoint x="240" y="60" as="targetPoint" />
          </mxGeometry>
        </mxCell>
        <mxCell id="mjtQQ0A5IN0c86QrF7Lo-16" value="Pull intraday stock price" style="rounded=1;whiteSpace=wrap;html=1;shadow=0;labelBackgroundColor=none;strokeWidth=1;fontFamily=Verdana;fontSize=8;align=center;" vertex="1" parent="mjtQQ0A5IN0c86QrF7Lo-30">
          <mxGeometry x="210" y="100" width="80" height="40" as="geometry" />
        </mxCell>
        <mxCell id="mjtQQ0A5IN0c86QrF7Lo-17" value="Publish price to &amp;nbsp;topic" style="rounded=1;whiteSpace=wrap;html=1;shadow=0;labelBackgroundColor=none;strokeWidth=1;fontFamily=Verdana;fontSize=8;align=center;" vertex="1" parent="mjtQQ0A5IN0c86QrF7Lo-30">
          <mxGeometry x="430" y="100" width="80" height="40" as="geometry" />
        </mxCell>
        <mxCell id="mjtQQ0A5IN0c86QrF7Lo-21" value="interval (from config) has lapsed" style="rounded=1;whiteSpace=wrap;html=1;shadow=0;labelBackgroundColor=none;strokeWidth=1;fontFamily=Verdana;fontSize=8;align=center;" vertex="1" parent="mjtQQ0A5IN0c86QrF7Lo-30">
          <mxGeometry x="540" y="100" width="80" height="40" as="geometry" />
        </mxCell>
        <mxCell id="mjtQQ0A5IN0c86QrF7Lo-147" value="" style="ellipse;whiteSpace=wrap;html=1;rounded=0;shadow=0;labelBackgroundColor=none;strokeWidth=1;fontFamily=Verdana;fontSize=8;align=center;" vertex="1" parent="mjtQQ0A5IN0c86QrF7Lo-30">
          <mxGeometry x="40" y="35" width="30" height="30" as="geometry" />
        </mxCell>
        <mxCell id="mjtQQ0A5IN0c86QrF7Lo-148" value="" style="endArrow=classic;html=1;exitX=1;exitY=0.5;exitDx=0;exitDy=0;entryX=0;entryY=0.5;entryDx=0;entryDy=0;" edge="1" parent="mjtQQ0A5IN0c86QrF7Lo-30" source="mjtQQ0A5IN0c86QrF7Lo-147" target="mjtQQ0A5IN0c86QrF7Lo-149">
          <mxGeometry width="50" height="50" relative="1" as="geometry">
            <mxPoint x="10" y="44" as="sourcePoint" />
            <mxPoint x="100" y="35" as="targetPoint" />
          </mxGeometry>
        </mxCell>
        <mxCell id="mjtQQ0A5IN0c86QrF7Lo-149" value="Get Subscription setup from config" style="rounded=1;whiteSpace=wrap;html=1;shadow=0;labelBackgroundColor=none;strokeWidth=1;fontFamily=Verdana;fontSize=8;align=center;" vertex="1" parent="mjtQQ0A5IN0c86QrF7Lo-30">
          <mxGeometry x="100" y="30" width="80" height="40" as="geometry" />
        </mxCell>
        <mxCell id="mjtQQ0A5IN0c86QrF7Lo-150" value="&lt;font style=&quot;font-size: 8px&quot;&gt;exists&lt;/font&gt;" style="rhombus;whiteSpace=wrap;html=1;" vertex="1" parent="mjtQQ0A5IN0c86QrF7Lo-30">
          <mxGeometry x="230" y="30" width="40" height="40" as="geometry" />
        </mxCell>
        <mxCell id="mjtQQ0A5IN0c86QrF7Lo-159" value="" style="endArrow=classic;html=1;exitX=0.5;exitY=1;exitDx=0;exitDy=0;entryX=0.5;entryY=0;entryDx=0;entryDy=0;" edge="1" parent="mjtQQ0A5IN0c86QrF7Lo-30" source="mjtQQ0A5IN0c86QrF7Lo-150" target="mjtQQ0A5IN0c86QrF7Lo-16">
          <mxGeometry width="50" height="50" relative="1" as="geometry">
            <mxPoint x="290" y="420" as="sourcePoint" />
            <mxPoint x="290" y="450" as="targetPoint" />
          </mxGeometry>
        </mxCell>
        <mxCell id="mjtQQ0A5IN0c86QrF7Lo-152" value="&lt;font style=&quot;font-size: 8px&quot;&gt;End&lt;/font&gt;" style="strokeWidth=2;html=1;shape=mxgraph.flowchart.terminator;whiteSpace=wrap;" vertex="1" parent="mjtQQ0A5IN0c86QrF7Lo-30">
          <mxGeometry x="320" y="30" width="80" height="40" as="geometry" />
        </mxCell>
        <mxCell id="mjtQQ0A5IN0c86QrF7Lo-156" value="&lt;div style=&quot;text-align: justify&quot;&gt;&lt;span style=&quot;font-size: 6px&quot;&gt;&lt;sup&gt;N&lt;/sup&gt;&lt;/span&gt;&lt;/div&gt;" style="ellipse;whiteSpace=wrap;html=1;aspect=fixed;" vertex="1" parent="mjtQQ0A5IN0c86QrF7Lo-30">
          <mxGeometry x="275" y="45" width="10" height="10" as="geometry" />
        </mxCell>
        <mxCell id="mjtQQ0A5IN0c86QrF7Lo-158" value="&lt;div style=&quot;text-align: justify&quot;&gt;&lt;span style=&quot;font-size: 6px&quot;&gt;&lt;sup&gt;Y&lt;/sup&gt;&lt;/span&gt;&lt;/div&gt;" style="ellipse;whiteSpace=wrap;html=1;aspect=fixed;" vertex="1" parent="mjtQQ0A5IN0c86QrF7Lo-30">
          <mxGeometry x="245" y="75" width="10" height="10" as="geometry" />
        </mxCell>
        <mxCell id="mjtQQ0A5IN0c86QrF7Lo-151" value="" style="endArrow=classic;html=1;entryX=0;entryY=0.5;entryDx=0;entryDy=0;" edge="1" parent="mjtQQ0A5IN0c86QrF7Lo-30" target="mjtQQ0A5IN0c86QrF7Lo-150">
          <mxGeometry width="50" height="50" relative="1" as="geometry">
            <mxPoint x="180" y="50" as="sourcePoint" />
            <mxPoint x="110" y="60" as="targetPoint" />
          </mxGeometry>
        </mxCell>
        <mxCell id="mjtQQ0A5IN0c86QrF7Lo-169" value="&lt;font style=&quot;font-size: 8px&quot;&gt;lapsed&lt;/font&gt;" style="rhombus;whiteSpace=wrap;html=1;" vertex="1" parent="mjtQQ0A5IN0c86QrF7Lo-30">
          <mxGeometry x="670" y="100" width="40" height="40" as="geometry" />
        </mxCell>
        <mxCell id="mjtQQ0A5IN0c86QrF7Lo-170" value="" style="endArrow=classic;html=1;entryX=0;entryY=0.5;entryDx=0;entryDy=0;" edge="1" parent="mjtQQ0A5IN0c86QrF7Lo-30" source="mjtQQ0A5IN0c86QrF7Lo-21" target="mjtQQ0A5IN0c86QrF7Lo-169">
          <mxGeometry width="50" height="50" relative="1" as="geometry">
            <mxPoint x="660" y="470" as="sourcePoint" />
            <mxPoint x="800" y="470" as="targetPoint" />
          </mxGeometry>
        </mxCell>
        <mxCell id="mjtQQ0A5IN0c86QrF7Lo-59" value="" style="endArrow=classic;startArrow=classic;html=1;entryX=0.5;entryY=1;entryDx=0;entryDy=0;exitX=0.095;exitY=0;exitDx=0;exitDy=0;exitPerimeter=0;" edge="1" parent="mjtQQ0A5IN0c86QrF7Lo-1" source="mjtQQ0A5IN0c86QrF7Lo-83" target="mjtQQ0A5IN0c86QrF7Lo-4">
          <mxGeometry width="50" height="50" relative="1" as="geometry">
            <mxPoint x="140" y="110" as="sourcePoint" />
            <mxPoint x="290" y="100" as="targetPoint" />
          </mxGeometry>
        </mxCell>
        <mxCell id="mjtQQ0A5IN0c86QrF7Lo-168" value="" style="endArrow=classic;html=1;entryX=0.5;entryY=1;entryDx=0;entryDy=0;exitX=0.5;exitY=0;exitDx=0;exitDy=0;" edge="1" parent="mjtQQ0A5IN0c86QrF7Lo-1" source="mjtQQ0A5IN0c86QrF7Lo-31" target="mjtQQ0A5IN0c86QrF7Lo-17">
          <mxGeometry width="50" height="50" relative="1" as="geometry">
            <mxPoint x="300" y="440" as="sourcePoint" />
            <mxPoint x="350" y="440" as="targetPoint" />
          </mxGeometry>
        </mxCell>
        <mxCell id="mjtQQ0A5IN0c86QrF7Lo-25" value="" style="endArrow=classic;html=1;entryX=1;entryY=0.5;entryDx=0;entryDy=0;exitX=0.5;exitY=1;exitDx=0;exitDy=0;" edge="1" parent="mjtQQ0A5IN0c86QrF7Lo-1" source="mjtQQ0A5IN0c86QrF7Lo-169" target="mjtQQ0A5IN0c86QrF7Lo-31">
          <mxGeometry width="50" height="50" relative="1" as="geometry">
            <mxPoint x="600" y="560" as="sourcePoint" />
            <mxPoint x="690" y="560" as="targetPoint" />
            <Array as="points">
              <mxPoint x="690" y="530" />
            </Array>
          </mxGeometry>
        </mxCell>
        <mxCell id="mjtQQ0A5IN0c86QrF7Lo-67" value="alphavantage" style="swimlane;html=1;startSize=20;horizontal=0;" vertex="1" parent="mjtQQ0A5IN0c86QrF7Lo-1">
          <mxGeometry y="480" width="730" height="100" as="geometry" />
        </mxCell>
        <mxCell id="mjtQQ0A5IN0c86QrF7Lo-31" value="Retrive Price" style="rounded=1;whiteSpace=wrap;html=1;shadow=0;labelBackgroundColor=none;strokeWidth=1;fontFamily=Verdana;fontSize=8;align=center;" vertex="1" parent="mjtQQ0A5IN0c86QrF7Lo-67">
          <mxGeometry x="430" y="29.5" width="80" height="41" as="geometry" />
        </mxCell>
        <mxCell id="mjtQQ0A5IN0c86QrF7Lo-145" value="" style="endArrow=classic;startArrow=classic;html=1;entryX=0.5;entryY=1;entryDx=0;entryDy=0;" edge="1" parent="mjtQQ0A5IN0c86QrF7Lo-1" target="mjtQQ0A5IN0c86QrF7Lo-144">
          <mxGeometry width="50" height="50" relative="1" as="geometry">
            <mxPoint x="250" y="220" as="sourcePoint" />
            <mxPoint x="150" y="100" as="targetPoint" />
          </mxGeometry>
        </mxCell>
        <mxCell id="mjtQQ0A5IN0c86QrF7Lo-167" value="" style="endArrow=classic;html=1;exitX=0.5;exitY=1;exitDx=0;exitDy=0;entryX=0.004;entryY=0.407;entryDx=0;entryDy=0;entryPerimeter=0;" edge="1" parent="mjtQQ0A5IN0c86QrF7Lo-1" source="mjtQQ0A5IN0c86QrF7Lo-16" target="mjtQQ0A5IN0c86QrF7Lo-31">
          <mxGeometry width="50" height="50" relative="1" as="geometry">
            <mxPoint x="80" y="440" as="sourcePoint" />
            <mxPoint x="110" y="440" as="targetPoint" />
            <Array as="points">
              <mxPoint x="250" y="526" />
            </Array>
          </mxGeometry>
        </mxCell>
        <mxCell id="mjtQQ0A5IN0c86QrF7Lo-177" value="" style="endArrow=classic;startArrow=classic;html=1;entryX=0.5;entryY=1;entryDx=0;entryDy=0;exitX=0.617;exitY=0.001;exitDx=0;exitDy=0;exitPerimeter=0;" edge="1" parent="mjtQQ0A5IN0c86QrF7Lo-1" source="mjtQQ0A5IN0c86QrF7Lo-83" target="mjtQQ0A5IN0c86QrF7Lo-175">
          <mxGeometry width="50" height="50" relative="1" as="geometry">
            <mxPoint x="330" y="210" as="sourcePoint" />
            <mxPoint x="259.9999999999998" y="100" as="targetPoint" />
          </mxGeometry>
        </mxCell>
        <mxCell id="mjtQQ0A5IN0c86QrF7Lo-88" value="" style="shape=table;html=1;whiteSpace=wrap;startSize=0;container=1;collapsible=0;childLayout=tableLayout;" vertex="1" parent="1">
          <mxGeometry x="150" y="270" width="430" height="40" as="geometry" />
        </mxCell>
        <mxCell id="mjtQQ0A5IN0c86QrF7Lo-89" value="" style="shape=partialRectangle;html=1;whiteSpace=wrap;collapsible=0;dropTarget=0;pointerEvents=0;fillColor=none;top=0;left=0;bottom=0;right=0;points=[[0,0.5],[1,0.5]];portConstraint=eastwest;" vertex="1" parent="mjtQQ0A5IN0c86QrF7Lo-88">
          <mxGeometry width="430" height="40" as="geometry" />
        </mxCell>
        <mxCell id="mjtQQ0A5IN0c86QrF7Lo-90" value="" style="shape=partialRectangle;html=1;whiteSpace=wrap;connectable=0;overflow=hidden;fillColor=none;top=0;left=0;bottom=0;right=0;" vertex="1" parent="mjtQQ0A5IN0c86QrF7Lo-89">
          <mxGeometry width="108" height="40" as="geometry" />
        </mxCell>
        <mxCell id="mjtQQ0A5IN0c86QrF7Lo-91" value="" style="shape=partialRectangle;html=1;whiteSpace=wrap;connectable=0;overflow=hidden;fillColor=none;top=0;left=0;bottom=0;right=0;" vertex="1" parent="mjtQQ0A5IN0c86QrF7Lo-89">
          <mxGeometry x="108" width="107" height="40" as="geometry" />
        </mxCell>
        <mxCell id="mjtQQ0A5IN0c86QrF7Lo-92" value="" style="shape=partialRectangle;html=1;whiteSpace=wrap;connectable=0;overflow=hidden;fillColor=none;top=0;left=0;bottom=0;right=0;" vertex="1" parent="mjtQQ0A5IN0c86QrF7Lo-89">
          <mxGeometry x="215" width="108" height="40" as="geometry" />
        </mxCell>
        <mxCell id="mjtQQ0A5IN0c86QrF7Lo-93" value="" style="shape=partialRectangle;html=1;whiteSpace=wrap;connectable=0;overflow=hidden;fillColor=none;top=0;left=0;bottom=0;right=0;" vertex="1" parent="mjtQQ0A5IN0c86QrF7Lo-89">
          <mxGeometry x="323" width="107" height="40" as="geometry" />
        </mxCell>
        <mxCell id="mjtQQ0A5IN0c86QrF7Lo-94" value="" style="shape=table;html=1;whiteSpace=wrap;startSize=0;container=1;collapsible=0;childLayout=tableLayout;" vertex="1" parent="1">
          <mxGeometry x="160" y="280" width="430" height="40" as="geometry" />
        </mxCell>
        <mxCell id="mjtQQ0A5IN0c86QrF7Lo-95" value="" style="shape=partialRectangle;html=1;whiteSpace=wrap;collapsible=0;dropTarget=0;pointerEvents=0;fillColor=none;top=0;left=0;bottom=0;right=0;points=[[0,0.5],[1,0.5]];portConstraint=eastwest;" vertex="1" parent="mjtQQ0A5IN0c86QrF7Lo-94">
          <mxGeometry width="430" height="40" as="geometry" />
        </mxCell>
        <mxCell id="mjtQQ0A5IN0c86QrF7Lo-96" value="" style="shape=partialRectangle;html=1;whiteSpace=wrap;connectable=0;overflow=hidden;fillColor=none;top=0;left=0;bottom=0;right=0;" vertex="1" parent="mjtQQ0A5IN0c86QrF7Lo-95">
          <mxGeometry width="108" height="40" as="geometry" />
        </mxCell>
        <mxCell id="mjtQQ0A5IN0c86QrF7Lo-97" value="" style="shape=partialRectangle;html=1;whiteSpace=wrap;connectable=0;overflow=hidden;fillColor=none;top=0;left=0;bottom=0;right=0;" vertex="1" parent="mjtQQ0A5IN0c86QrF7Lo-95">
          <mxGeometry x="108" width="107" height="40" as="geometry" />
        </mxCell>
        <mxCell id="mjtQQ0A5IN0c86QrF7Lo-98" value="" style="shape=partialRectangle;html=1;whiteSpace=wrap;connectable=0;overflow=hidden;fillColor=none;top=0;left=0;bottom=0;right=0;" vertex="1" parent="mjtQQ0A5IN0c86QrF7Lo-95">
          <mxGeometry x="215" width="108" height="40" as="geometry" />
        </mxCell>
        <mxCell id="mjtQQ0A5IN0c86QrF7Lo-99" value="" style="shape=partialRectangle;html=1;whiteSpace=wrap;connectable=0;overflow=hidden;fillColor=none;top=0;left=0;bottom=0;right=0;" vertex="1" parent="mjtQQ0A5IN0c86QrF7Lo-95">
          <mxGeometry x="323" width="107" height="40" as="geometry" />
        </mxCell>
        <mxCell id="mjtQQ0A5IN0c86QrF7Lo-100" value="ticker topic" style="text;html=1;strokeColor=none;fillColor=none;align=center;verticalAlign=middle;whiteSpace=wrap;rounded=0;" vertex="1" parent="1">
          <mxGeometry x="325" y="290" width="80" height="20" as="geometry" />
        </mxCell>
        <mxCell id="mjtQQ0A5IN0c86QrF7Lo-162" value="" style="endArrow=classic;html=1;exitX=0.5;exitY=0;exitDx=0;exitDy=0;entryX=0.813;entryY=0.981;entryDx=0;entryDy=0;entryPerimeter=0;" edge="1" parent="1" source="mjtQQ0A5IN0c86QrF7Lo-17" target="mjtQQ0A5IN0c86QrF7Lo-95">
          <mxGeometry width="50" height="50" relative="1" as="geometry">
            <mxPoint x="230" y="480" as="sourcePoint" />
            <mxPoint x="400" y="370" as="targetPoint" />
          </mxGeometry>
        </mxCell>
        <mxCell id="mjtQQ0A5IN0c86QrF7Lo-171" value="" style="endArrow=classic;html=1;entryX=0.5;entryY=0;entryDx=0;entryDy=0;" edge="1" parent="1" target="mjtQQ0A5IN0c86QrF7Lo-21">
          <mxGeometry width="50" height="50" relative="1" as="geometry">
            <mxPoint x="730" y="449" as="sourcePoint" />
            <mxPoint x="610" y="430" as="targetPoint" />
            <Array as="points">
              <mxPoint x="730" y="430" />
              <mxPoint x="680" y="430" />
              <mxPoint x="620" y="430" />
            </Array>
          </mxGeometry>
        </mxCell>
      </root>
    </mxGraphModel>
  </diagram>
</mxfile>
